<?xml version="1.0" standalone="no"?>
<svg xmlns:xlink="http://www.w3.org/1999/xlink" id="wave" style="transform:rotate(0deg); transition: 0.3s" viewBox="0 0 1440 270" version="1.1" xmlns="http://www.w3.org/2000/svg"><defs><linearGradient id="sw-gradient-0" x1="0" x2="0" y1="1" y2="0"><stop stop-color="rgba(146, 29, 29, 1)" offset="0%"/><stop stop-color="rgba(146, 29, 29, 0.62)" offset="100%"/></linearGradient></defs><path style="transform:translate(0, 0px); opacity:1" fill="url(#sw-gradient-0)" d="M0,135L48,126C96,117,192,99,288,81C384,63,480,45,576,54C672,63,768,99,864,126C960,153,1056,171,1152,157.5C1248,144,1344,99,1440,72C1536,45,1632,36,1728,45C1824,54,1920,81,2016,81C2112,81,2208,54,2304,49.5C2400,45,2496,63,2592,81C2688,99,2784,117,2880,103.5C2976,90,3072,45,3168,49.5C3264,54,3360,108,3456,135C3552,162,3648,162,3744,171C3840,180,3936,198,4032,171C4128,144,4224,72,4320,76.5C4416,81,4512,162,4608,202.5C4704,243,4800,243,4896,211.5C4992,180,5088,117,5184,103.5C5280,90,5376,126,5472,135C5568,144,5664,126,5760,108C5856,90,5952,72,6048,63C6144,54,6240,54,6336,85.5C6432,117,6528,180,6624,171C6720,162,6816,81,6864,40.5L6912,0L6912,270L6864,270C6816,270,6720,270,6624,270C6528,270,6432,270,6336,270C6240,270,6144,270,6048,270C5952,270,5856,270,5760,270C5664,270,5568,270,5472,270C5376,270,5280,270,5184,270C5088,270,4992,270,4896,270C4800,270,4704,270,4608,270C4512,270,4416,270,4320,270C4224,270,4128,270,4032,270C3936,270,3840,270,3744,270C3648,270,3552,270,3456,270C3360,270,3264,270,3168,270C3072,270,2976,270,2880,270C2784,270,2688,270,2592,270C2496,270,2400,270,2304,270C2208,270,2112,270,2016,270C1920,270,1824,270,1728,270C1632,270,1536,270,1440,270C1344,270,1248,270,1152,270C1056,270,960,270,864,270C768,270,672,270,576,270C480,270,384,270,288,270C192,270,96,270,48,270L0,270Z"/><defs><linearGradient id="sw-gradient-1" x1="0" x2="0" y1="1" y2="0"><stop stop-color="rgba(146, 29, 29, 0.82)" offset="0%"/><stop stop-color="rgba(255, 0, 0, 0.92)" offset="100%"/></linearGradient></defs><path style="transform:translate(0, 50px); opacity:0.9" fill="url(#sw-gradient-1)" d="M0,243L48,220.5C96,198,192,153,288,139.5C384,126,480,144,576,162C672,180,768,198,864,193.5C960,189,1056,162,1152,153C1248,144,1344,153,1440,162C1536,171,1632,180,1728,162C1824,144,1920,99,2016,103.5C2112,108,2208,162,2304,180C2400,198,2496,180,2592,171C2688,162,2784,162,2880,175.5C2976,189,3072,216,3168,207C3264,198,3360,153,3456,135C3552,117,3648,126,3744,130.5C3840,135,3936,135,4032,126C4128,117,4224,99,4320,76.5C4416,54,4512,27,4608,40.5C4704,54,4800,108,4896,135C4992,162,5088,162,5184,162C5280,162,5376,162,5472,135C5568,108,5664,54,5760,31.5C5856,9,5952,18,6048,45C6144,72,6240,117,6336,117C6432,117,6528,72,6624,72C6720,72,6816,117,6864,139.5L6912,162L6912,270L6864,270C6816,270,6720,270,6624,270C6528,270,6432,270,6336,270C6240,270,6144,270,6048,270C5952,270,5856,270,5760,270C5664,270,5568,270,5472,270C5376,270,5280,270,5184,270C5088,270,4992,270,4896,270C4800,270,4704,270,4608,270C4512,270,4416,270,4320,270C4224,270,4128,270,4032,270C3936,270,3840,270,3744,270C3648,270,3552,270,3456,270C3360,270,3264,270,3168,270C3072,270,2976,270,2880,270C2784,270,2688,270,2592,270C2496,270,2400,270,2304,270C2208,270,2112,270,2016,270C1920,270,1824,270,1728,270C1632,270,1536,270,1440,270C1344,270,1248,270,1152,270C1056,270,960,270,864,270C768,270,672,270,576,270C480,270,384,270,288,270C192,270,96,270,48,270L0,270Z"/></svg>